<?xml version="1.0"?>
<svg xmlns="http://www.w3.org/2000/svg" xmlns:xlink="http://www.w3.org/1999/xlink" version="1.1" id="Capa_1" x="0px" y="0px" width="512px" height="512px" viewBox="0 0 612 612" style="enable-background:new 0 0 612 612;" xml:space="preserve" class=""><g><g>
	<g id="youtube">
		<g>
			<path d="M489.6,81.6H122.4C54.917,81.6,0,136.516,0,204v204c0,67.482,54.917,122.4,122.4,122.4h367.2     c67.483,0,122.4-54.918,122.4-122.4V204C612,136.516,557.083,81.6,489.6,81.6z M584.8,408c0,52.496-42.704,95.199-95.2,95.199     H122.4c-52.496,0-95.2-42.703-95.2-95.199V204c0-52.496,42.704-95.2,95.2-95.2h367.2c52.496,0,95.2,42.704,95.2,95.2V408z      M217.6,421.068l199.308-115.055L217.6,190.93V421.068z M244.8,238.041l117.708,67.973L244.8,373.959V238.041z" data-original="#000000" class="active-path" data-old_color="#000000" fill="#FFFFFF"/>
		</g>
	</g>
</g></g> </svg>
